<?xml version="1.0" encoding="UTF-8"?>
<svg width="25px" height="25px" viewBox="0 0 25 25" version="1.1" xmlns="http://www.w3.org/2000/svg" xmlns:xlink="http://www.w3.org/1999/xlink">
    <!-- Generator: Sketch 44.1 (41455) - http://www.bohemiancoding.com/sketch -->
    <title>汇率01 (1)</title>
    <desc>Created with Sketch.</desc>
    <defs></defs>
    <g id="Welcome" stroke="none" stroke-width="1" fill="none" fill-rule="evenodd">
        <g id="Desktop-Copy-3" transform="translate(-106.000000, -758.000000)" fill="#FFFFFF">
            <g id="汇率01-(1)" transform="translate(106.000000, 758.000000)">
                <path d="M17.174037,11.8751111 L17.174037,13.1324444 L13.9374074,13.1324444 L13.9374074,14.5364074 L17.174037,14.5364074 L17.174037,15.7951852 L13.9374074,15.7951852 L13.9374074,19.2391852 L11.5434815,19.2391852 L11.5434815,15.7951852 L8.34733333,15.7951852 L8.34733333,14.5364074 L11.5434444,14.5364074 L11.5434444,13.1324444 L8.34733333,13.1324444 L8.34733333,11.8751111 L10.9042222,11.8751111 L7.5,5.83333333 L10.2248889,5.83333333 L11.9772593,9.56651852 C12.3272963,10.3284815 12.5767407,10.9677037 12.8227037,11.6494074 L12.8643704,11.6494074 C13.1126667,11.0284815 13.3808148,10.2875556 13.7300741,9.52514815 L15.5471481,5.83333333 L18.2061852,5.83333333 L14.6171852,11.8751111 L17.174037,11.8751111" id="Fill-1"></path>
                <path d="M23.7829259,8.9672963 L18.7144074,8.9672963 C18.0686667,8.9672963 17.5447037,8.44337037 17.5447037,7.79766667 C17.5447037,7.15114815 18.0686667,6.628 18.7144074,6.628 L20.7292593,6.628 C18.8971481,4.03744444 15.8915556,2.33933333 12.4762593,2.33933333 C6.87777778,2.33933333 2.3392963,6.87781481 2.3392963,12.4762222 C2.3392963,13.122037 1.81611111,13.6459259 1.16966667,13.6459259 C0.523925926,13.6459259 0,13.122037 0,12.4762222 C0,5.58548148 5.58633333,0 12.4762593,0 C16.6607037,0 20.3538889,2.06592593 22.6132222,5.22918519 L22.6132222,3.11907407 C22.6132222,2.47259259 23.1371111,1.94944444 23.7829259,1.94944444 C24.4293333,1.94944444 24.9524815,2.47259259 24.9524815,3.11907407 L24.9524815,7.79766667 C24.9524815,8.44333333 24.4293333,8.9672963 23.7829259,8.9672963 Z M1.16966667,15.985 L6.23814815,15.985 C6.88462963,15.985 7.40777778,16.5081111 7.40777778,17.1546296 C7.40777778,17.8004074 6.88462963,18.3242593 6.23814815,18.3242593 L4.20803704,18.3242593 C6.04092593,20.9178889 9.05796296,22.612963 12.4762593,22.612963 C18.0747407,22.612963 22.6132222,18.0745185 22.6132222,12.4762222 C22.6132222,11.8297407 23.1371111,11.3065926 23.7829259,11.3065926 C24.4293333,11.3065926 24.9524815,11.8297407 24.9524815,12.4762222 C24.9524815,19.366 19.367037,24.9523333 12.4762593,24.9523333 C8.28655556,24.9523333 4.59637037,22.8780741 2.3392963,19.7064074 L2.3392963,21.8331852 C2.3392963,22.479037 1.81611111,23.0028889 1.16966667,23.0028889 C0.523925926,23.0028889 0,22.479037 0,21.8331852 L0,17.1546296 C-3.7037037e-05,16.5081111 0.523925926,15.985 1.16966667,15.985 L1.16966667,15.985 Z" id="Fill-2"></path>
            </g>
        </g>
    </g>
</svg>