<?xml version="1.0" encoding="UTF-8"?>
<svg width="25px" height="29px" viewBox="0 0 25 29" version="1.1" xmlns="http://www.w3.org/2000/svg" xmlns:xlink="http://www.w3.org/1999/xlink">
    <!-- Generator: Sketch 44.1 (41455) - http://www.bohemiancoding.com/sketch -->
    <title>报告</title>
    <desc>Created with Sketch.</desc>
    <defs></defs>
    <g id="Welcome" stroke="none" stroke-width="1" fill="none" fill-rule="evenodd">
        <g id="Desktop-Copy-3" transform="translate(-106.000000, -711.000000)" fill="#FFFFFF">
            <path d="M110.449791,733.346762 L124.700313,733.346762 L124.700313,731.554352 L110.449791,731.554352 L110.449791,733.346762 Z M110.449826,728.880641 L124.700313,728.880641 L124.700313,727.116957 L110.449826,727.116957 L110.449826,728.880641 Z M128.268628,737.803447 L107.782033,737.803447 L107.782033,713.73649 L122.147389,713.73649 L123.929352,711.954074 L106,711.954074 L106,739.586351 L130.049652,739.586351 L130.049652,717.736386 L128.268524,719.689345 L128.268524,737.803447 L128.268628,737.803447 Z M118.48172,723.542514 L121.741992,723.539903 L127.623886,717.676253 L124.446274,714.377751 L118.484297,720.321379 L118.48172,723.542514 Z M130.949373,714.360759 L127.774338,711.062674 L125.903656,712.911664 L129.094325,716.219812 L130.949373,714.360759 L130.949373,714.360759 Z" id="报告"></path>
        </g>
    </g>
</svg>