<?xml version="1.0" encoding="UTF-8"?>
<svg width="25px" height="25px" viewBox="0 0 25 25" version="1.1" xmlns="http://www.w3.org/2000/svg" xmlns:xlink="http://www.w3.org/1999/xlink">
    <!-- Generator: Sketch 44.1 (41455) - http://www.bohemiancoding.com/sketch -->
    <title>计算器</title>
    <desc>Created with Sketch.</desc>
    <defs></defs>
    <g id="Welcome" stroke="none" stroke-width="1" fill="none" fill-rule="evenodd">
        <g id="Desktop-Copy-3" transform="translate(-106.000000, -669.000000)" fill="#FFFFFF">
            <g id="计算器" transform="translate(106.000000, 669.000000)">
                <path d="M10.2956063,0.00263620387 C7.72921793,0.000834797891 4.04626538,0.00228471002 1.4806239,0.00263620387 C0.449033392,0.00263620387 0.0114235501,0.6206942 0.0114235501,1.47183656 C0.00856766257,3.98224956 0.0207381371,8.12539543 0.0207381371,10.0923989 C0.0207381371,11.1239455 0.554481547,11.7559754 1.48057996,11.7559754 C2.88088752,11.7617311 9.08106327,11.7584798 10.2955624,11.7559754 C11.3364675,11.7530756 11.7640158,11.3653339 11.7647627,10.286775 L11.7647627,1.47179262 C11.7648067,0.659797891 11.148594,0.00303163445 10.2956063,0.00263620387 Z M8.79635325,6.14046573 C8.70773286,6.44925308 8.49147627,6.61753076 8.17003515,6.61783831 C7.40746924,6.61999121 6.64494728,6.61893673 5.88233743,6.61893673 C5.11981547,6.61893673 4.35724956,6.62253954 3.59468366,6.61713533 C3.12157293,6.61392794 2.83352373,6.13471002 2.98703866,5.62108963 C3.07671353,5.32192443 3.28945518,5.1551406 3.60289982,5.1529877 C4.18651142,5.14942882 4.76968366,5.15188928 5.35294376,5.15188928 C6.28905975,5.15188928 7.22521968,5.14942882 8.16142355,5.1529877 C8.65355888,5.1547891 8.94696837,5.61572935 8.79635325,6.14046573 L8.79635325,6.14046573 Z" id="Fill-1"></path>
                <path d="M23.5181459,0.00263620387 C20.9517575,0.000834797891 17.2688049,0.00228471002 14.7031195,0.00263620387 C13.8401582,0.00263620387 13.2339631,0.536731107 13.2339631,1.47183656 L13.2339631,10.286819 C13.2339631,11.0923989 13.8734622,11.752768 14.7031195,11.7559754 C15.9459578,11.7610281 22.1457821,11.7588752 23.5181459,11.7559754 C24.2914763,11.7559754 24.9873023,11.1630931 24.9873023,10.286819 L24.9873023,1.47183656 C24.9873023,0.539279438 24.3796573,0.00263620387 23.5181459,0.00263620387 Z M21.3143234,6.61392794 C20.4449033,6.62034271 19.845167,6.61392794 19.845167,6.61392794 C19.845167,6.61392794 19.8472759,7.59494728 19.845167,8.08308436 C19.84442,8.37579086 19.4878735,8.82231986 19.1134446,8.82231986 C18.7848858,8.82231986 18.3821178,8.49661687 18.3759666,8.08308436 C18.3630931,7.19393673 18.3759666,6.61392794 18.3759666,6.61392794 C18.3759666,6.61392794 17.7989016,6.62899824 16.9068102,6.61392794 C16.6245167,6.61392794 16.1671793,6.26814587 16.1671793,5.87649385 C16.1671793,5.56155536 16.5162127,5.14477153 16.9068102,5.14477153 L18.3759666,5.14477153 C18.3759666,5.14477153 18.3637522,4.55654657 18.3759666,3.67561511 C18.3821178,3.26058875 18.7202988,2.93022847 19.1134446,2.93022847 C19.4456063,2.93022847 19.845167,3.21933216 19.845167,3.67561511 C19.8508787,4.53321617 19.845167,5.14477153 19.845167,5.14477153 C19.845167,5.14477153 20.4442004,5.13330404 21.3143234,5.14477153 C21.7433216,5.1504833 22.0596661,5.55940246 22.0596661,5.87649385 C22.0596661,6.2107645 21.5848418,6.61212654 21.3143234,6.61392794 L21.3143234,6.61392794 Z" id="Fill-2"></path>
                <path d="M10.2956063,13.2251757 C7.72921793,13.2233743 4.04626538,13.2248243 1.4806239,13.2251757 C0.379086116,13.2255272 0.0128734622,13.5529877 0.0114235501,14.6943322 C0.00856766257,17.2001318 0.0114235501,22.2073374 0.0114235501,23.5093146 C0.0114235501,24.4157293 0.710852373,24.9785589 1.4806239,24.9785589 C2.76072056,24.9835677 8.98141476,24.9813708 10.2956063,24.9785589 C11.3365114,24.9756151 11.7640598,24.5857645 11.7648067,23.5093146 L11.7648067,14.6943322 C11.7648067,13.8836995 11.148594,13.2255272 10.2956063,13.2251757 Z M8.54525483,21.7679262 C8.20307557,22.1007909 7.73172232,22.108304 7.39173989,21.7747364 C6.94586995,21.3364236 6.5064587,20.8920035 6.06818981,20.4464851 C6.01366432,20.391652 5.98207381,20.3137961 5.92970123,20.2316784 C5.38523726,20.7797012 4.89635325,21.2760984 4.40281195,21.7664323 C4.11441125,22.0530316 3.78119508,22.0989895 3.44081722,21.9141916 C3.10109842,21.7302285 2.89956063,21.3560633 2.99279438,20.9966608 C3.03479789,20.8334798 3.14345343,20.6706942 3.26217047,20.5465729 C3.72956942,20.0598418 4.21304921,19.5892355 4.70588752,19.0971002 C4.64275044,19.0307118 4.59182777,18.9730228 4.53730228,18.9192004 C4.08677504,18.4654657 3.63053603,18.0171353 3.1857645,17.5579965 C2.91779438,17.2811072 2.89666081,16.8933216 3.11045694,16.568717 C3.33172232,16.2315905 3.73778559,16.0665641 4.07961336,16.2010984 C4.21449912,16.2545255 4.33927944,16.3531195 4.44367311,16.4564587 C4.92469244,16.9302724 5.39635325,17.4130931 5.91463093,17.937478 C6.0516696,17.7800088 6.16643234,17.634051 6.2952109,17.5016696 C6.6263181,17.1626977 6.96419156,16.8294815 7.2991652,16.4938049 C7.72456063,16.0684095 8.18440246,16.0429262 8.55957821,16.4234622 C8.92438489,16.7928822 8.89815466,17.2631371 8.48857645,17.6731107 C8.07249561,18.090993 7.65676626,18.5077768 7.24178383,18.9252636 C7.19226714,18.9758348 7.14565026,19.0282074 7.0793058,19.0999121 C7.346529,19.3649824 7.60619508,19.6207381 7.8637522,19.8782513 C8.1029877,20.1160808 8.34547452,20.3525044 8.57899824,20.5960018 C8.90966608,20.9418717 8.8935413,21.4297452 8.54525483,21.7679262 L8.54525483,21.7679262 Z" id="Fill-3"></path>
                <path d="M24.9873023,14.6943322 C24.9873023,13.9619069 24.2025044,13.2251757 23.5181459,13.2251757 C20.9517575,13.2233743 17.2688049,13.2248243 14.7031195,13.2251757 C13.944464,13.2251757 13.2339631,14.002065 13.2339631,14.6943322 L13.2339631,23.5093146 C13.2339631,24.1553163 13.9656854,24.9785589 14.7031195,24.9785589 C15.9348418,24.9835677 22.1554482,24.9813708 23.5181459,24.9785589 C24.5586555,24.9756151 24.9894112,24.2797891 24.9898067,23.2030316 C24.9923111,20.6617311 24.9901582,17.2359402 24.9873023,14.6943322 Z M21.3143234,21.3056239 C20.5080404,21.3056239 17.5955185,21.3045255 16.9577329,21.3045255 C16.3745606,21.3045255 16.1722759,20.9641476 16.1722759,20.5710457 C16.1722759,20.1581283 16.5309315,19.8364236 16.9068541,19.8364236 L21.3143234,19.8364236 C21.6801845,19.8364236 22.0489455,20.1348858 22.0489455,20.5710457 C22.0489455,20.9688049 21.603471,21.3056239 21.3143234,21.3056239 Z M21.3143234,18.3672232 C19.6636643,18.3834359 19.1295694,18.3658172 16.9068541,18.3672232 C16.616652,18.3672232 16.1722759,18.0659051 16.1722759,17.632645 C16.1722759,17.2259227 16.5316784,16.9023726 16.8064148,16.9031195 C17.6988576,16.9031195 20.2217926,16.8981107 21.3143234,16.8981107 C21.6629613,16.9059754 22.0467487,17.2775483 22.0489455,17.632645 C22.0514938,17.9927944 21.667355,18.3633128 21.3143234,18.3672232 L21.3143234,18.3672232 Z" id="Fill-4"></path>
            </g>
        </g>
    </g>
</svg>