<?xml version="1.0" encoding="UTF-8"?>
<svg width="110px" height="28px" viewBox="0 0 110 28" version="1.1" xmlns="http://www.w3.org/2000/svg" xmlns:xlink="http://www.w3.org/1999/xlink">
    <!-- Generator: Sketch 44.1 (41455) - http://www.bohemiancoding.com/sketch -->
    <title>Page 1</title>
    <desc>Created with Sketch.</desc>
    <defs>
        <polygon id="path-1" points="0.153594096 0.263320731 24.7128192 0.263320731 24.7128192 27.2799473 0.153594096 27.2799473 0.153594096 0.263320731"></polygon>
    </defs>
    <g id="Welcome" stroke="none" stroke-width="1" fill="none" fill-rule="evenodd">
        <g id="Desktop-Copy-5" transform="translate(-151.000000, -22.000000)">
            <g id="Group-4" transform="translate(0.000000, 2.000000)" fill="#000000">
                <rect id="Rectangle-18" x="0" y="0" width="1280" height="69"></rect>
            </g>
            <g id="Page-1" transform="translate(151.000000, 22.000000)">
                <polygon id="Fill-1" fill="#FFFFFF" points="86.0434207 0.405835539 86.0434207 27.4756087 109.968218 27.4756087 109.973089 21.2966169 92.7079594 21.2966169 92.7079594 16.5821708 108.268697 16.5821708 108.268697 10.6552432 92.7079594 10.6552432 92.6905055 6.30341588 109.953605 6.30341588 109.965782 0.405835539"></polygon>
                <g id="Group-9" transform="translate(0.000000, 0.138615)">
                    <path d="M75.7528598,8.68484033 C75.633524,9.57691468 74.7360701,10.5393419 73.6178044,10.5393419 L64.277952,10.541754 L64.277952,6.21485167 L73.6214576,6.21485167 C74.7360701,6.21485167 75.6103875,7.02933686 75.7528598,8.09669036 L75.7528598,8.68484033 Z M81.9209779,7.37426692 C81.9209779,1.52975274 76.8508303,0.30279874 72.1273247,0.30279874 L57.6588745,0.30279874 L57.6588745,27.3279481 L64.3039299,27.3279481 L64.3039299,16.3918964 L71.6191328,16.3866702 C73.7152214,16.4156154 75.3445203,18.1169487 75.3445203,20.2130621 L75.3445203,27.3034251 L81.848321,27.3034251 L81.8333026,18.5788655 C81.8333026,14.5377968 77.8923801,13.3462203 77.8923801,13.3462203 C77.8923801,13.3462203 81.9209779,12.1518296 81.9209779,7.37426692 L81.9209779,7.37426692 Z" id="Fill-2" fill="#FFFFFF"></path>
                    <g id="Group-6" transform="translate(29.630996, 0.000000)">
                        <mask id="mask-2" fill="white">
                            <use xlink:href="#path-1"></use>
                        </mask>
                        <g id="Clip-5"></g>
                        <path d="M16.349572,10.5677243 L6.87820664,10.5842069 L6.87090037,6.14112187 L16.3658081,6.14112187 L16.4011218,6.14112187 L16.438059,6.14835816 C17.5120812,6.33730586 18.2966937,7.24425482 18.2966937,8.30517606 C18.2966937,9.39222836 17.4572841,10.4177721 16.349572,10.5677243 M15.9440738,20.9851748 L6.87090037,20.9851748 L6.87090037,16.4580683 L16.1425609,16.4580683 L16.1677269,16.4580683 L16.1876162,16.4628925 C17.3440369,16.5947539 18.2207897,17.5463267 18.2207897,18.6796108 C18.2207897,19.910987 17.1837048,20.965074 15.9440738,20.9851748 M20.3663985,13.35812 C23.8409373,12.2155894 24.4721181,9.32750372 24.4635941,6.9712857 C24.4591292,3.37484713 21.8946273,0.267260491 14.3107159,0.267260491 L0.153594096,0.263240328 L0.153594096,27.2799473 L14.2745904,27.2799473 C21.9027454,27.2799473 24.7128192,23.3988812 24.7128192,19.5133928 C24.7128192,14.807389 20.3663985,13.35812 20.3663985,13.35812" id="Fill-4" fill="#FFFFFF" mask="url(#mask-2)"></path>
                    </g>
                    <path d="M13.2939668,20.6707578 C8.29769373,20.1883381 6.52754613,16.5215467 6.52754613,13.5305448 C6.52754613,9.79983277 9.09448339,7.05446289 13.0723432,6.53867587 C14.9658856,6.29143579 25.3103506,6.41003062 25.422786,6.41003062 L25.6387269,6.41364877 L25.6602399,0.266818273 L25.4410517,0.270034405 L13.7303137,0.287321109 C12.4269557,0.367724386 10.2642989,0.497173661 8.05009225,1.39487624 C5.9251845,2.36011758 4.07588561,3.84114594 2.69134686,5.6855971 C0.932158672,8.03337278 0.000202952029,10.8189443 0.000202952029,13.7412014 C0.000202952029,14.6598088 0.0761070111,15.5703759 0.225073801,16.4459676 C1.06691882,20.5457307 3.78079336,23.9351308 7.66935424,25.7586771 C8.98164207,26.3335606 11.0054797,27.0181945 15.0896863,27.2449317 C15.1002399,27.2449317 17.2933395,27.2911636 17.2933395,27.2911636 L25.456476,27.3000079 L25.6711993,27.3000079 L25.6951476,20.7941768 L25.4771771,20.7969909 C25.3826015,20.8002071 16.3958856,20.969858 13.2939668,20.6707578" id="Fill-7" fill="#FFFFFF"></path>
                </g>
            </g>
        </g>
    </g>
</svg>