<?xml version="1.0" encoding="UTF-8"?>
<svg width="30px" height="24px" viewBox="0 0 30 24" version="1.1" xmlns="http://www.w3.org/2000/svg" xmlns:xlink="http://www.w3.org/1999/xlink">
    <!-- Generator: Sketch 44.1 (41455) - http://www.bohemiancoding.com/sketch -->
    <title>微博</title>
    <desc>Created with Sketch.</desc>
    <defs></defs>
    <g id="Welcome" stroke="none" stroke-width="1" fill="none" fill-rule="evenodd">
        <g id="Desktop-Copy-3" transform="translate(-1192.000000, -718.000000)" fill="#FFFFFF">
            <g id="Group-2" transform="translate(1184.000000, 662.000000)">
                <g id="微博" transform="translate(6.142857, 51.560870)">
                    <path d="M23.9822429,15.846887 C23.6516617,15.7806212 23.4370516,15.6815968 23.3383377,15.5497391 C23.2396612,15.4179188 23.2231153,15.2966561 23.2886625,15.1859885 L23.3880502,15.0210353 C23.4098744,14.9991714 23.4320728,14.9660759 23.4546456,14.9216366 C23.4772184,14.8772348 23.5212785,14.7834893 23.5868257,14.6404 C23.652373,14.4972734 23.7020855,14.3541842 23.7358886,14.2110575 C23.7697291,14.0679683 23.7972058,13.8917462 23.8183561,13.6823912 C23.8395064,13.4730362 23.8338539,13.2745757 23.8014733,13.0870472 C23.7690553,12.8995187 23.7027968,12.6957795 23.6026604,12.4758668 C23.5025614,12.2559168 23.3647287,12.0574563 23.1892373,11.8805229 C22.8805177,11.5717691 22.4783997,11.3733461 21.9828461,11.2851789 C21.4872925,11.1970491 20.9917763,11.1914334 20.4962226,11.2682942 C20.0007064,11.3451925 19.5326669,11.4442168 19.0921415,11.5654421 C18.6516161,11.6866673 18.28828,11.8022768 18.0020583,11.912308 L17.5728006,12.1111054 C17.352201,12.1773712 17.1703457,12.2214361 17.0272349,12.2433001 C16.884124,12.2652015 16.7738055,12.2595857 16.6963168,12.2264154 C16.6187906,12.1932825 16.5581846,12.1601496 16.5144241,12.1270541 C16.470701,12.0939212 16.4541176,12.0167609 16.4647489,11.8954608 C16.4753802,11.7741981 16.4862736,11.6695206 16.4975038,11.5814282 C16.5087341,11.4933733 16.5362108,11.3555255 16.5799713,11.1679596 C16.6236945,10.9803936 16.6568237,10.8316512 16.6793216,10.7217324 C16.6793216,10.4573805 16.6627757,10.2096137 16.6296465,9.97839476 C16.5965172,9.74717577 16.5249805,9.48843962 16.4149989,9.2022612 C16.3050547,8.91604533 16.145398,8.68482635 15.9360286,8.50856679 C15.7266593,8.33230724 15.4623365,8.18921803 15.143023,8.07926172 C14.8237095,7.96930541 14.4106233,7.9361725 13.9038395,7.97986301 C13.3970181,8.02359095 12.8243127,8.15574818 12.1856856,8.37637213 C11.414579,8.64072402 10.6325416,9.03161739 9.83957342,9.54908968 C9.04660525,10.0665245 8.35830304,10.6061603 7.77466679,11.1679596 C7.19103053,11.7297962 6.65673253,12.2750478 6.17177276,12.8038264 C5.68685043,13.3325676 5.31220919,13.7622471 5.04784903,14.0928274 L4.68413857,14.6215311 C3.95742889,15.5689824 3.41785266,16.5164337 3.06544732,17.4638475 C2.71300454,18.4112987 2.54773265,19.1271941 2.56955678,19.6115334 L2.56955678,20.3052278 C2.7021112,21.3626354 3.02703985,22.3100867 3.54438018,23.1475816 C4.06175794,23.9850391 4.67848601,24.6624853 5.39467668,25.1799202 C6.11086736,25.697355 6.95354811,26.1379665 7.92268152,26.5017171 C8.89185237,26.8654677 9.82261574,27.1298196 10.7150465,27.2948102 C11.6074399,27.4597634 12.5491715,27.5753729 13.5401664,27.6416761 C15.1705371,27.7742077 16.8611769,27.6476662 18.6120482,27.2620517 C20.362957,26.8763996 21.9929533,26.2098855 23.5021496,25.2624342 C25.0113085,24.3150204 26.0742519,23.1803776 26.6909425,21.8585807 C27.0652469,21.087389 27.2580329,20.3602247 27.269338,19.6770879 C27.2806431,18.9939886 27.165009,18.4377676 26.9225104,18.0085 C26.6800118,17.5791949 26.3659765,17.1992335 25.9804419,16.8685784 C25.5949447,16.5379232 25.2315712,16.2953979 24.8903586,16.1410772 C24.5491835,15.986719 24.2464159,15.8876573 23.9821681,15.8439293 L23.9822429,15.846887 Z M13.9050373,26.124002 C11.5260954,26.2339957 9.50521136,25.7711834 7.84238521,24.7356023 C6.17959651,23.7000213 5.34818343,22.3891938 5.34822087,20.803045 C5.34822087,19.2387976 6.17435572,17.889521 7.82655056,16.7552152 C9.47878283,15.6209468 11.505282,14.99846 13.9060855,14.8877924 C16.306889,14.7771622 18.3333882,15.1736713 19.985583,16.0773946 C21.6378153,16.9810805 22.4639127,18.2147476 22.4639127,19.7783585 C22.4639127,21.3645073 21.6212694,22.7909817 19.9359079,24.0577818 C18.2505838,25.3245443 16.2406305,26.0129225 13.9060855,26.1228788 L13.9050373,26.124002 Z M12.9471342,16.969849 C12.3085446,17.0361148 11.7358391,17.1848572 11.2289803,17.4160762 C10.722159,17.6473326 10.3256936,17.9116845 10.0395468,18.2091693 C9.75339995,18.5066915 9.51093878,18.8260029 9.31212587,19.1671782 C9.11331296,19.5083535 8.97551775,19.8442874 8.89870282,20.1749051 C8.82188789,20.5055228 8.77221274,20.8083238 8.74963993,21.0832333 C8.72702968,21.3581428 8.71613634,21.5727766 8.71684759,21.7271722 L8.74963993,21.9915616 L8.74963993,22.1237562 C8.74963993,22.190022 8.77183839,22.3221792 8.81623533,22.5202653 C8.86063226,22.7183889 8.92123819,22.9002642 8.99809056,23.0659287 C9.07494293,23.2315932 9.20147044,23.4134685 9.37767311,23.6115546 C9.55387579,23.8096407 9.76324514,23.9749682 10.0057437,24.1074998 C11.4599118,24.8124257 12.8146546,25.027097 14.0700098,24.7514387 C15.3253649,24.4758179 16.3385958,23.8424366 17.1097398,22.8512949 C17.4184595,22.4769867 17.6221763,22.0141743 17.7208902,21.4628952 C17.8196041,20.9116161 17.7974056,20.3554326 17.6542948,19.7943073 C17.5111839,19.2331445 17.2634071,18.7210259 16.9110392,18.2578391 C16.5586339,17.7946898 16.0356035,17.4365924 15.3419482,17.1835094 C14.6483304,16.9304265 13.8497096,16.8588444 12.946086,16.9688382 L12.9471342,16.969849 Z M11.7576258,23.2160937 C11.6251088,23.2379203 11.4985813,23.2435734 11.3780432,23.2329784 C11.2575052,23.2224208 11.1472241,23.2001824 11.0471251,23.1663757 C10.9470261,23.1325689 10.8480127,23.0941572 10.75001,23.0511405 C10.6520448,23.0081614 10.5695773,22.9475487 10.5026076,22.8692652 C10.4356753,22.7909817 10.3750693,22.7137839 10.3207523,22.6376719 C10.2664353,22.5615598 10.2223753,22.47343 10.1885723,22.37332 C10.1547318,22.2731725 10.1381859,22.168495 10.1388971,22.0592875 C10.1388971,21.8167621 10.2051556,21.5799274 10.3376726,21.3487084 C10.4701896,21.1174894 10.6520448,20.9190289 10.8832383,20.7533644 C11.1144318,20.5876999 11.3731394,20.4939544 11.6593236,20.4720904 C11.8573879,20.4502639 12.0501739,20.4558796 12.2376817,20.4890125 C12.4251895,20.522108 12.5848462,20.5771048 12.716652,20.6539657 C12.8484577,20.7308265 12.9640919,20.8189563 13.0634796,20.918355 C13.1628674,21.0177163 13.2344415,21.1333258 13.2781272,21.2651835 C13.3218129,21.3970787 13.3440113,21.5401679 13.3447226,21.694526 C13.3447226,21.9370139 13.2731859,22.1682329 13.130075,22.388183 C12.9870016,22.6081705 12.7942156,22.7953246 12.551717,22.9496827 C12.3092184,23.1040409 12.0448957,23.1921706 11.7587114,23.2140721 L11.7576258,23.2160937 Z M14.5658629,20.8368893 C14.4114843,20.9468456 14.2518276,20.9965636 14.0868551,20.9859686 C13.9219202,20.9753736 13.8063234,20.903829 13.7400649,20.7712973 L13.6734321,20.6391027 C13.651608,20.5947008 13.6406772,20.550636 13.6406772,20.506908 L13.6406772,20.3747133 C13.6406772,20.3084475 13.651608,20.2534507 13.6734321,20.2097227 L13.7400649,20.0775281 C13.7618891,20.0331262 13.7950183,19.9999933 13.8394152,19.9781668 L13.9387655,19.8459721 C14.1150056,19.7134031 14.2855932,19.6584436 14.4505282,19.6809815 C14.6154632,19.7035568 14.7310599,19.7916866 14.7973558,19.9453708 C14.8635769,20.0335006 14.8910536,20.1325624 14.8797859,20.2425187 C14.8685182,20.352475 14.835389,20.4571525 14.7804356,20.5565512 C14.7254448,20.6559499 14.6539081,20.7496954 14.565788,20.8377878 L14.5658629,20.8368893 Z M26.2956376,13.9297835 C26.4281546,13.9297835 26.5494039,13.8966506 26.6593481,13.8303848 C26.7692923,13.7641565 26.8574123,13.6816799 26.9236708,13.5829925 C26.9899667,13.4842677 27.0340268,13.3795902 27.0558509,13.26896 C27.0777125,13.247096 27.0886432,13.2139631 27.0886432,13.1695612 C27.3529285,10.6578252 26.4718403,9.22573502 24.4453411,8.87325335 C23.8503998,8.76329704 23.2995558,8.75236505 22.792772,8.84049483 C22.6383934,8.84049483 22.5062508,8.87890653 22.3963066,8.95572994 C22.2863624,9.03255335 22.1925898,9.13157767 22.1150636,9.25287779 C22.0375374,9.37414047 21.99913,9.50068195 21.9998412,9.63250223 C21.9998412,9.85312618 22.0770305,10.0402803 22.231409,10.1939645 C22.3857876,10.3476488 22.572921,10.4248466 22.7928468,10.4255579 C24.5113002,10.0286744 25.4364484,10.5795791 25.5682541,12.078272 C25.6126511,12.4526176 25.5904526,12.8050993 25.5016587,13.135717 C25.5016587,13.3563784 25.578848,13.5435325 25.7332266,13.6972168 C25.8875677,13.850901 26.0747386,13.9280988 26.2946269,13.9287727 L26.2956376,13.9297835 Z M25.7341998,4.61172564 C24.7649916,4.39110169 23.4652021,4.43516658 21.8348314,4.74395774 C21.8130072,4.74395774 21.7908088,4.75485229 21.768236,4.77671626 L21.7354811,4.84331901 L21.7027262,4.87607753 C21.4602276,4.94234334 21.2618264,5.08015375 21.1074479,5.2895462 C20.9531068,5.49893866 20.8759175,5.72487885 20.8759175,5.96732933 C20.8759175,6.29794703 20.9861986,6.5732309 21.2068356,6.79318096 C21.4274352,7.01316846 21.6917579,7.12346172 21.9998412,7.12413561 L22.0991915,7.12413561 C22.1210531,7.12413561 22.1707282,7.11324106 22.2482544,7.09137709 C22.325818,7.06955055 22.4082855,7.05296538 22.4956569,7.04169645 C22.5830657,7.03042752 22.6768009,7.0082266 22.7768999,6.9750937 C22.8769989,6.9419608 22.9651189,6.9088279 23.04126,6.87569499 C23.1173637,6.84259953 23.2660897,6.82601436 23.487438,6.82601436 C23.7087488,6.82601436 23.9787241,6.84259953 24.2973264,6.87569499 C24.6159287,6.9088279 24.9683715,6.99130449 25.3546547,7.12312477 C25.740938,7.25494505 26.1264726,7.42027262 26.5113334,7.61907004 C26.8961567,7.81786745 27.2817287,8.09315133 27.668012,8.44492167 C28.0542953,8.79669201 28.3901547,9.20413311 28.6756277,9.66728242 C29.2487076,10.9672153 29.3589886,12.2230834 29.0065459,13.4348865 C29.0065459,13.4567505 29.0009307,13.4789514 28.989663,13.5015267 C28.9783954,13.5240646 28.9618495,13.5790615 28.9399879,13.6664799 C28.9181263,13.7538984 28.8958904,13.8363749 28.8733551,13.9139097 C28.8508197,13.9914444 28.8286212,14.0904687 28.8067597,14.2110575 C28.7848981,14.3316089 28.7739673,14.4362864 28.7740048,14.5250901 C28.7740048,14.7231761 28.8289956,14.8884663 28.9389397,15.0209979 C29.0489214,15.1535295 29.1867166,15.247275 29.3523628,15.3022719 C29.518009,15.3572688 29.7108325,15.3847485 29.9307583,15.384711 C30.5475238,15.384711 30.9108973,15.0100285 31.0208415,14.2606633 C31.2851642,13.4013418 31.4338902,12.580769 31.4670194,11.7989822 C31.5001487,11.017158 31.4451953,10.3288173 31.3020845,9.73384773 C31.1589736,9.13887814 30.944326,8.58269464 30.6581792,8.06522235 C30.3720323,7.5477875 30.0414511,7.10717605 29.6664355,6.74346289 C29.29142,6.37971229 28.8727561,6.04909459 28.4103692,5.7516098 C27.9479822,5.45412501 27.5017668,5.21725283 27.0717979,5.04103072 C26.6418289,4.8648086 26.1956135,4.72168195 25.7332266,4.61172564 L25.7341998,4.61172564 L25.7341998,4.61172564 Z" id="Fill-2"></path>
                </g>
            </g>
        </g>
    </g>
</svg>