<?xml version="1.0" encoding="UTF-8"?>
<svg width="31px" height="25px" viewBox="0 0 31 25" version="1.1" xmlns="http://www.w3.org/2000/svg" xmlns:xlink="http://www.w3.org/1999/xlink">
    <!-- Generator: Sketch 44.1 (41455) - http://www.bohemiancoding.com/sketch -->
    <title>微信 (1)</title>
    <desc>Created with Sketch.</desc>
    <defs></defs>
    <g id="Welcome" stroke="none" stroke-width="1" fill="none" fill-rule="evenodd">
        <g id="Desktop-Copy-3" transform="translate(-1190.000000, -761.000000)" fill="#FFFFFF">
            <g id="Group-2" transform="translate(1184.000000, 662.000000)">
                <g id="微信-(1)" transform="translate(6.910714, 99.273913)">
                    <path d="M20.2685094,7.24006292 C20.6115666,7.24006292 20.9503698,7.2647023 21.287404,7.30153776 C20.3719952,3.13072555 15.8141151,0.0323031313 10.61106,0.0323031313 C4.79467171,0.0323031313 0.0296515973,3.91065663 0.0296515973,8.83548326 C0.0296515973,11.6782 1.61483273,14.0125957 4.26427034,15.8230956 L3.20599473,18.9369691 L6.90418912,17.1223077 C8.22852886,17.3787962 9.29013186,17.6419596 10.6110179,17.6419596 C10.9429136,17.6419596 11.2722822,17.6260553 11.5990815,17.6009627 C11.3920258,16.9088763 11.2722822,16.1841572 11.2722822,15.4322854 C11.2723664,10.9099706 15.2417634,7.24006292 20.2685094,7.24006292 Z M14.5787301,4.43364598 C15.3752798,4.43364598 15.9030277,4.94625217 15.9030277,5.725318 C15.9030277,6.50112879 15.3752377,7.02073949 14.5787301,7.02073949 C13.7856762,7.02073949 12.9901374,6.50108759 12.9901374,5.725318 C12.9901795,4.94625217 13.7857184,4.43364598 14.5787301,4.43364598 Z M7.1737491,7.02078069 C6.3806531,7.02078069 5.57997574,6.50112879 5.57997574,5.7253592 C5.57997574,4.94625217 6.38069522,4.43368718 7.1737491,4.43368718 C7.96676085,4.43368718 8.49459298,4.94625217 8.49459298,5.7253592 C8.49459298,6.50112879 7.96676085,7.02078069 7.1737491,7.02078069 L7.1737491,7.02078069 Z" id="Fill-1"></path>
                    <path d="M29.9251165,15.3076464 C29.9251165,11.1694257 25.6923088,7.79609705 20.9375236,7.79609705 C15.9030698,7.79609705 11.9379268,11.1694257 11.9379268,15.3076464 C11.9379268,19.4533248 15.9030698,22.8190721 20.9375236,22.8190721 C21.991461,22.8190721 23.0548751,22.5587517 24.1130665,22.2994202 L27.0148796,23.8542556 L26.2192565,21.2676153 C28.3434312,19.708948 29.9251165,17.6419596 29.9251165,15.3076464 Z M18.0203371,14.0125957 C17.4933473,14.0125957 16.9612612,13.5000307 16.9612612,12.9770002 C16.9612612,12.4610977 17.4933473,11.9418166 18.0203371,11.9418166 C18.8202142,11.9418166 19.3446347,12.4611389 19.3446347,12.9770002 C19.3446347,13.5000307 18.8202142,14.0125957 18.0203371,14.0125957 Z M23.840137,14.0125957 C23.3165588,14.0125957 22.788811,13.5000307 22.788811,12.9770002 C22.788811,12.4610977 23.316601,11.9418166 23.840137,11.9418166 C24.6331909,11.9418166 25.1643925,12.4611389 25.1643925,12.9770002 C25.1643925,13.5000307 24.6331909,14.0125957 23.840137,14.0125957 L23.840137,14.0125957 Z" id="Fill-2"></path>
                </g>
            </g>
        </g>
    </g>
</svg>