<?xml version="1.0" encoding="UTF-8"?>
<svg width="24px" height="24px" viewBox="0 0 24 24" version="1.1" xmlns="http://www.w3.org/2000/svg" xmlns:xlink="http://www.w3.org/1999/xlink">
    <!-- Generator: Sketch 44.1 (41455) - http://www.bohemiancoding.com/sketch -->
    <title>电话 (1)</title>
    <desc>Created with Sketch.</desc>
    <defs></defs>
    <g id="Welcome" stroke="none" stroke-width="1" fill="none" fill-rule="evenodd">
        <g id="Desktop-Copy-3" transform="translate(-1194.000000, -672.000000)" fill="#FFFFFF">
            <g id="Group-2" transform="translate(1184.000000, 662.000000)">
                <path d="M27.4380952,24.3182609 C25.8511905,25.9086957 25.8511905,27.4991304 24.2642857,27.4991304 C22.677381,27.4991304 21.0904762,25.9086957 19.5035714,24.3182609 C17.9166667,22.7278261 16.3297619,21.1373913 16.3297619,19.5469565 C16.3297619,17.9565217 17.9166667,17.9565217 19.5035714,16.366087 C21.0904762,14.7756522 16.3297619,10.0043478 14.7428571,10.0043478 C13.1559524,10.0043478 9.98214286,14.7756522 9.98214286,14.7756522 C9.98214286,17.9565217 13.2424263,24.4049271 16.3297619,27.4991304 C19.4170975,30.5933337 25.8511905,33.8608696 29.025,33.8608696 C29.025,33.8608696 33.7857143,30.68 33.7857143,29.0895652 C33.7857143,27.4991304 29.025,22.7278261 27.4380952,24.3182609" id="电话-(1)"></path>
            </g>
        </g>
    </g>
</svg>